<?xml version="1.0" standalone="no"?>
<!DOCTYPE svg PUBLIC "-//W3C//DTD SVG 20010904//EN"
 "http://www.w3.org/TR/2001/REC-SVG-20010904/DTD/svg10.dtd">
<svg version="1.0" xmlns="http://www.w3.org/2000/svg"
 width="3088.000000pt" height="2132.000000pt" viewBox="0 0 3088.000000 2132.000000"
 preserveAspectRatio="xMidYMid meet">
<metadata>
Created by potrace 1.16, written by Peter Selinger 2001-2019
</metadata>
<g transform="translate(0.000000,2132.000000) scale(0.100000,-0.100000)"
fill="#000000" stroke="none">
<path d="M3030 18320 l0 -2430 812 -2 813 -3 -125 -71 -125 -71 -48 -139 c-26
-76 -49 -147 -50 -156 -2 -10 -320 -427 -707 -928 l-705 -910 -1422 0 -1423 0
0 -1230 0 -1230 1920 0 1920 0 2 942 c3 889 4 943 21 946 16 3 17 -47 17 -942
l0 -946 1920 0 1920 0 0 1054 c0 1045 0 1054 20 1059 20 5 20 0 20 -1054 l0
-1059 1920 0 1920 0 0 1230 c0 1165 -1 1230 -17 1230 -10 0 44 41 119 90 76
50 140 90 143 90 3 0 53 -40 111 -90 l105 -90 -210 0 -211 0 0 -1230 0 -1230
1920 0 1920 0 0 1141 c0 1036 1 1141 16 1135 9 -3 18 -6 20 -6 2 0 4 -511 4
-1135 l0 -1135 1920 0 1920 0 0 1009 c0 1004 0 1009 20 1004 20 -5 20 -14 20
-1009 l0 -1004 1920 0 1920 0 0 1020 c0 561 2 1020 4 1020 3 0 16 -4 30 -10
l26 -10 0 -1010 0 -1010 2550 0 2550 0 0 1230 0 1230 -2123 0 -2124 0 -1984
1446 c-1091 796 -2001 1459 -2021 1473 l-37 27 35 53 c20 29 34 55 31 57 -2 2
-44 13 -93 23 l-89 19 63 1 62 1 0 1230 0 1230 -1920 0 -1920 0 0 -931 0 -931
-77 6 c-210 15 -263 17 -263 10 0 -5 9 -33 20 -63 12 -29 20 -55 18 -56 -2 -1
-616 -212 -1366 -468 l-1362 -466 -1320 404 -1320 404 -120 101 -119 100 -144
-18 c-79 -10 -149 -16 -155 -14 -9 3 -12 442 -12 1753 l0 1749 -3540 0 -3540
0 0 -2430z m7060 2020 l0 -390 -3520 0 -3520 0 0 390 0 390 3520 0 3520 0 0
-390z m0 -2010 l0 -1600 -3520 0 -3520 0 0 1600 0 1600 3520 0 3520 0 0 -1600z
m10060 430 l0 -390 -1900 0 -1900 0 0 390 0 390 1900 0 1900 0 0 -390z m0
-710 l0 -300 -1900 0 -1900 0 0 300 0 300 1900 0 1900 0 0 -300z m0 -820 l0
-500 -1900 0 -1900 0 0 500 0 500 1900 0 1900 0 0 -500z m-3876 61 c29 -7 27
-9 -78 -90 -59 -45 -109 -81 -111 -79 -5 5 -65 171 -65 180 0 8 209 0 254 -11z
m53 -178 c-3 -2 -51 -2 -108 -1 l-104 3 105 81 105 81 3 -80 c2 -44 1 -81 -1
-84z m-6095 17 l107 -90 136 17 135 16 1320 -404 c726 -222 1320 -406 1320
-409 0 -3 -183 -68 -406 -145 l-406 -138 -906 362 -907 362 -105 110 -105 110
-143 -11 c-79 -5 -148 -8 -153 -4 -11 6 -12 314 -1 314 4 0 55 -41 114 -90z
m5818 24 c15 -39 13 -44 -25 -44 -19 0 -35 -3 -35 -6 0 -4 12 -33 26 -65 15
-33 25 -61 23 -62 -2 -2 -464 -209 -1026 -461 l-1023 -457 -317 97 c-175 53
-321 100 -325 103 -6 6 2653 920 2680 921 7 0 17 -12 22 -26z m181 -141 c-141
-129 -122 -127 -170 -22 -22 49 -41 92 -41 94 0 3 66 5 147 5 l148 0 -84 -77z
m99 -116 l0 -173 -150 -28 c-82 -15 -150 -30 -150 -33 0 -3 14 -28 31 -55 16
-28 29 -51 27 -53 -2 -2 -269 -177 -595 -389 l-591 -386 -429 131 c-235 72
-431 134 -435 138 -4 3 414 195 930 426 515 230 970 434 1010 452 l72 33 22
-45 c12 -25 24 -45 27 -45 4 0 55 45 114 100 60 55 111 100 113 100 2 0 4 -78
4 -173z m-6095 -126 l90 -91 150 0 150 0 880 -351 c484 -194 884 -355 888
-359 10 -9 -879 -312 -903 -308 -10 2 -212 109 -450 238 l-431 235 -94 121
-94 122 -98 6 c-54 4 -124 9 -155 12 l-58 6 0 239 c0 225 1 239 18 230 9 -5
57 -50 107 -100z m-145 -461 l0 -400 -3520 0 -3520 0 0 400 0 400 3520 0 3520
0 0 -400z m6950 338 c-69 -33 -127 -62 -130 -64 -2 -3 19 -26 48 -52 l53 -47
-441 -525 c-243 -289 -447 -530 -453 -537 -9 -9 -147 30 -596 167 -321 99
-585 181 -587 182 -1 2 260 175 582 385 l585 382 27 -44 c15 -25 29 -45 32
-45 3 0 50 59 105 130 l99 130 401 -1 400 -1 -125 -60z m989 40 c-7 -13 -41
-73 -75 -134 -35 -61 -64 -113 -64 -116 0 -3 27 -8 60 -12 l59 -7 -5 -42 c-3
-23 -50 -366 -103 -762 -54 -396 -102 -719 -107 -719 -11 2 -1658 506 -1661
508 -3 2 853 1025 881 1054 11 11 20 8 50 -18 20 -18 38 -31 40 -29 3 2 27 62
56 134 28 71 56 137 61 147 9 17 36 18 415 18 l405 0 -12 -22z m886 -10 c3
-18 12 -89 21 -158 8 -68 17 -126 19 -128 2 -3 27 10 54 27 l50 30 55 -97
c509 -911 1246 -2236 1243 -2238 -4 -5 -2521 766 -2528 774 -3 4 41 347 97
762 57 415 103 759 103 763 1 4 24 5 51 1 39 -5 50 -4 50 7 -1 8 -14 76 -29
152 l-28 137 418 0 418 0 6 -32z m1080 -98 c44 -72 83 -130 86 -130 4 0 20 20
36 45 15 25 31 44 34 42 4 -1 908 -659 2009 -1462 l2003 -1460 -407 -3 -406
-2 0 -205 c0 -216 0 -216 -44 -199 -14 5 -16 33 -16 205 l0 199 -650 0 -651 0
-737 225 c-405 124 -765 235 -798 246 l-62 20 -653 1171 c-360 644 -655 1175
-657 1180 -2 4 17 20 42 35 25 15 45 31 44 35 -2 4 -52 48 -112 98 l-108 90
483 0 484 0 80 -130z m-3682 96 c-104 -138 -149 -194 -154 -190 -9 5 -87 138
-91 154 -2 10 27 20 107 36 61 12 121 22 133 23 23 1 23 1 5 -23z m837 -106
c-27 -68 -51 -125 -53 -127 -4 -4 -144 118 -149 130 -3 7 243 128 249 122 2
-1 -20 -57 -47 -125z m2925 109 c61 -12 113 -25 117 -28 3 -3 -20 -43 -52 -89
l-59 -84 -25 40 c-55 87 -106 173 -106 177 0 8 7 7 125 -16z m-1990 -136 l22
-113 -76 7 c-123 10 -120 1 -43 137 43 77 68 112 71 100 1 -11 13 -70 26 -131z
m951 67 c52 -43 95 -83 96 -87 1 -10 -154 -104 -161 -97 -6 6 -39 264 -34 264
2 0 47 -36 99 -80z m-8827 -340 c50 -60 95 -110 99 -110 4 -1 68 -9 143 -18
l136 -18 319 -173 c517 -282 555 -303 551 -307 -10 -11 -1204 -414 -1219 -412
-15 3 -248 194 -356 293 -31 28 -61 73 -103 156 l-58 117 -133 45 -133 45 328
1 327 1 0 245 c0 135 2 245 3 245 2 0 45 -49 96 -110z m3418 -120 c180 -55
328 -102 329 -103 1 -1 -177 -82 -397 -181 l-399 -178 -345 138 c-287 115
-342 140 -323 147 19 8 798 275 805 276 2 1 150 -44 330 -99z m865 -265 c322
-98 385 -121 370 -130 -9 -7 -173 -114 -363 -238 l-347 -226 -483 194 c-426
170 -481 195 -459 203 14 6 195 87 403 180 l379 170 56 -18 c31 -9 231 -70
444 -135z m-1702 -71 c188 -75 340 -138 338 -139 -10 -9 -904 -405 -915 -405
-16 0 -683 361 -683 369 0 8 879 310 902 310 10 1 171 -60 358 -135z m-6556
44 c-9 -18 -43 -79 -76 -135 l-59 -103 41 -149 40 -148 -90 -739 c-49 -407
-92 -755 -96 -776 l-5 -36 -237 -81 -237 -81 -792 0 -793 0 -2 -272 c-3 -251
-4 -273 -20 -276 -17 -3 -18 15 -18 272 l0 276 -483 2 -483 3 712 920 c423
547 728 932 752 950 21 17 73 49 115 72 l75 42 38 113 c20 62 43 128 51 146
l13 32 785 0 786 0 -17 -32z m1610 -35 c3 -38 8 -108 12 -156 l6 -88 116 -90
116 -90 203 -381 c111 -210 200 -384 197 -387 -5 -6 -2477 -851 -2480 -848 -1
1 42 358 95 792 l96 790 68 118 68 117 -36 130 c-19 72 -35 137 -35 145 0 13
100 15 784 15 l784 0 6 -67z m1648 -70 l68 -131 138 -46 c77 -26 152 -57 169
-69 16 -12 101 -82 188 -156 l158 -135 -64 -22 c-35 -12 -415 -141 -843 -288
-429 -147 -783 -263 -787 -259 -4 4 -96 175 -204 378 l-196 370 -19 148 c-11
81 -22 152 -25 157 -3 5 -53 48 -110 96 -58 48 -105 88 -105 90 0 2 352 3 783
2 l782 -3 67 -132z m6015 -179 c318 -97 580 -178 581 -179 3 -3 -483 -588
-534 -644 -11 -12 -113 26 -686 254 -370 147 -676 270 -680 274 -10 9 714 482
729 476 7 -2 273 -84 590 -181z m-1854 -105 c263 -105 477 -193 475 -194 -2
-1 -200 -131 -442 -289 l-439 -286 -96 53 c-729 394 -910 493 -911 497 0 7
902 410 920 410 8 0 230 -86 493 -191z m-1815 -25 c189 -103 340 -190 335
-194 -4 -5 -295 -136 -646 -293 l-638 -286 -315 266 c-173 146 -312 268 -309
272 6 6 1204 419 1219 420 6 1 165 -83 354 -185z m5137 -319 c446 -136 813
-251 818 -254 6 -7 -118 -969 -127 -978 -8 -8 -2096 833 -2094 843 2 6 124
155 272 331 252 300 272 320 295 313 15 -4 391 -119 836 -255z m-2088 -148
c348 -139 633 -255 633 -259 0 -8 -696 -840 -713 -851 -8 -6 -286 140 -776
407 l-763 415 213 140 c118 77 317 207 443 289 l230 150 50 -19 c28 -11 336
-133 683 -272z m-2183 -3 c270 -147 497 -272 504 -279 11 -10 -120 -99 -648
-444 -655 -427 -662 -431 -684 -414 -107 84 -965 818 -961 821 5 5 1286 581
1294 582 1 0 224 -120 495 -266z m-2154 -43 c171 -145 308 -267 303 -272 -11
-10 -1864 -841 -1881 -842 -13 -2 -445 793 -436 802 7 7 1680 579 1691 577 6
0 152 -120 323 -265z m8565 -461 c688 -210 1255 -388 1262 -394 7 -6 69 -112
138 -236 l125 -225 -595 -3 -595 -2 0 -216 c0 -200 -1 -215 -17 -212 -16 3
-18 23 -21 216 l-2 212 -525 0 -525 0 -327 131 c-181 72 -332 134 -336 138 -5
5 19 213 52 462 77 573 67 522 94 517 12 -3 585 -177 1272 -388z m-2507 -181
c1026 -411 1052 -422 1052 -448 0 -25 -14 -133 -25 -198 l-6 -33 -1029 0
-1030 0 0 -85 c0 -47 -4 -85 -8 -85 -22 0 -32 29 -32 97 l0 73 -139 0 -139 0
-215 117 c-189 102 -214 119 -204 133 26 36 712 850 717 850 3 0 479 -189
1058 -421z m-2583 -34 c415 -225 755 -414 755 -418 0 -5 -42 -57 -92 -118
l-93 -109 -1225 0 -1226 0 -111 93 c-62 50 -111 96 -109 102 4 17 1310 865
1329 862 9 -1 357 -186 772 -412z m-2613 -53 l467 -395 -134 -88 c-74 -48
-144 -93 -154 -99 -13 -7 -424 -10 -1273 -10 l-1253 0 -47 90 -48 90 33 15
c17 9 448 202 957 429 l925 414 30 -26 c16 -13 240 -202 497 -420z m-2690 15
c114 -216 208 -398 210 -406 2 -9 -66 -44 -205 -107 l-209 -94 -354 0 -354 0
0 -160 c0 -88 -2 -160 -4 -160 -2 0 -11 -3 -20 -6 -14 -5 -16 13 -16 160 l0
166 -891 0 -891 0 6 28 c2 15 7 48 11 73 l6 47 267 91 c147 51 706 242 1242
426 536 183 980 334 985 334 6 0 103 -176 217 -392z m12463 -382 l730 -224
-625 0 -625 -1 -90 162 c-49 89 -107 193 -129 231 -37 67 -37 69 -15 63 13 -3
353 -107 754 -231z m-3186 -102 l294 -118 -318 -3 c-175 -1 -319 -1 -321 0 -8
8 31 238 40 238 6 0 143 -53 305 -117z m-2911 -57 l113 -61 -282 -3 c-155 -1
-284 0 -287 2 -2 3 36 52 84 110 l89 105 85 -46 c47 -25 136 -73 198 -107z
m-6091 22 c23 -45 41 -84 39 -85 -2 -2 -106 -2 -232 -1 l-228 3 184 82 c102
45 187 83 190 83 3 0 24 -37 47 -82z m-3012 15 c-3 -21 -8 -53 -11 -70 l-5
-33 -192 1 -192 0 195 69 c107 37 199 68 203 69 4 1 5 -16 2 -36z m-2115 -513
l0 -390 -1900 0 -1900 0 0 390 0 390 1900 0 1900 0 0 -390z m1569 386 c-6 -5
-739 -256 -749 -256 -5 0 -11 8 -13 18 -4 14 -5 13 -6 -3 -1 -24 -72 -57 -79
-36 -2 6 -11 11 -20 11 -15 0 -15 -2 -2 -10 19 -12 5 -26 -32 -35 -25 -6 -28
-5 -28 19 0 20 -5 26 -22 26 -21 -1 -21 -2 -5 -11 31 -18 21 -47 -23 -60 -34
-11 -46 -10 -75 4 -19 9 -35 21 -35 27 0 5 23 21 51 36 28 14 49 28 46 31 -6
5 -127 -59 -127 -68 0 -3 16 -13 35 -22 19 -9 35 -20 35 -24 0 -7 -414 -154
-432 -153 -5 0 -8 115 -8 255 l0 255 747 0 c410 0 744 -2 742 -4z m2311 -386
l0 -390 -1900 0 -1900 0 0 123 0 122 233 78 c127 43 240 77 249 77 9 0 18 4
20 9 2 4 13 11 24 15 16 5 23 2 27 -14 4 -17 13 -20 56 -19 41 1 49 4 40 15
-21 25 -6 56 33 70 l37 13 3 -47 c3 -47 3 -47 42 -50 21 -2 43 1 48 6 5 5 -8
8 -34 8 l-43 -1 0 45 c0 44 1 45 35 51 19 4 31 7 25 8 -5 2 14 11 44 22 29 10
57 16 62 13 5 -3 15 0 22 7 7 7 152 60 322 119 l310 108 1123 1 1122 1 0 -390z
m675 370 c-22 -11 -165 -75 -317 -143 l-278 -125 0 144 0 144 318 -1 317 -1
-40 -18z m3205 -370 l0 -390 -1900 0 -1900 0 2 236 3 237 340 153 340 153
1558 0 1557 1 0 -390z m3748 318 l132 -71 0 -319 0 -318 -1900 0 -1900 0 0
390 0 390 1768 0 1769 0 131 -72z m3494 -134 l518 -206 0 -184 0 -184 -1900 0
-1900 0 0 390 0 390 1382 0 1382 0 518 -206z m518 11 c0 -107 -1 -195 -3 -195
-1 0 -220 88 -487 195 l-485 194 488 1 487 0 0 -195z m3234 0 c350 -107 638
-195 641 -195 3 0 5 -88 5 -195 l0 -195 -1900 0 -1900 0 0 390 0 390 1259 0
1258 0 637 -195z m646 9 c0 -172 -1 -185 -17 -180 -128 38 -1171 358 -1178
360 -5 3 261 5 593 5 l602 1 0 -186z m5160 -204 l0 -390 -2530 0 -2530 0 0
390 0 390 2530 0 2530 0 0 -390z m-24560 -710 l0 -300 -1900 0 -1900 0 0 300
0 300 1900 0 1900 0 0 -300z m3880 0 l0 -300 -1900 0 -1900 0 0 300 0 300
1900 0 1900 0 0 -300z m3880 0 l0 -300 -1900 0 -1900 0 0 300 0 300 1900 0
1900 0 0 -300z m3880 0 l0 -300 -1900 0 -1900 0 0 300 0 300 1900 0 1900 0 0
-300z m3880 0 l0 -300 -1900 0 -1900 0 0 300 0 300 1900 0 1900 0 0 -300z
m3880 0 l0 -300 -1900 0 -1900 0 0 300 0 300 1900 0 1900 0 0 -300z m5160 0
l0 -300 -2530 0 -2530 0 0 300 0 300 2530 0 2530 0 0 -300z m-24560 -820 l0
-500 -1900 0 -1900 0 0 500 0 500 1900 0 1900 0 0 -500z m3880 0 l0 -500
-1900 0 -1900 0 0 500 0 500 1900 0 1900 0 0 -500z m3880 0 l0 -500 -1900 0
-1900 0 0 500 0 500 1900 0 1900 0 0 -500z m3880 0 l0 -500 -1900 0 -1900 0 0
500 0 500 1900 0 1900 0 0 -500z m3880 0 l0 -500 -1900 0 -1900 0 0 500 0 500
1900 0 1900 0 0 -500z m3880 0 l0 -500 -1900 0 -1900 0 0 500 0 500 1900 0
1900 0 0 -500z m5160 0 l0 -500 -2530 0 -2530 0 0 500 0 500 2530 0 2530 0 0
-500z"/>
<path d="M4553 19254 c-21 -33 -20 -89 3 -115 10 -11 30 -19 50 -19 40 0 64
29 64 80 0 51 -24 80 -65 80 -26 0 -39 -6 -52 -26z"/>
<path d="M7913 19254 c-21 -33 -20 -89 3 -115 10 -11 30 -19 50 -19 40 0 64
29 64 80 0 51 -24 80 -65 80 -26 0 -39 -6 -52 -26z"/>
<path d="M26473 13334 c-21 -33 -20 -89 3 -115 10 -11 30 -19 50 -19 40 0 64
29 64 80 0 51 -24 80 -65 80 -26 0 -39 -6 -52 -26z"/>
<path d="M13650 8140 l0 -310 300 0 300 0 0 -88 c0 -83 -3 -95 -55 -224 l-55
-137 65 -140 c36 -77 65 -142 65 -145 0 -3 -814 -6 -1810 -6 l-1810 0 0 -1830
0 -1830 1850 0 c1018 0 1850 -4 1850 -8 0 -4 -25 -69 -55 -145 l-55 -137 55
-137 55 -137 0 -328 0 -328 -890 0 -890 0 0 -150 0 -150 -2218 0 -2218 0 -137
55 -137 55 -137 -55 c-76 -30 -141 -55 -145 -55 -4 0 -8 320 -8 710 l0 710
-1720 0 c-946 0 -1720 4 -1720 8 0 4 25 69 55 145 l55 137 -55 137 -55 137 0
1828 0 1828 2000 0 2000 0 0 310 0 310 -4010 0 -4010 0 0 -310 0 -310 2000 0
2000 0 0 -1828 0 -1828 -55 -137 -55 -137 55 -137 c30 -76 55 -141 55 -145 0
-4 -774 -8 -1720 -8 l-1720 0 0 -1430 0 -1430 3450 0 3450 0 0 710 c0 391 4
710 8 710 4 0 69 -25 145 -55 l137 -55 137 55 137 55 2218 0 2218 0 0 -150 0
-150 1810 0 1810 0 0 310 0 310 -910 0 -910 0 0 328 0 328 55 137 55 137 -55
137 c-30 76 -55 141 -55 145 0 4 837 8 1860 8 l1860 0 0 1830 0 1830 -1900 0
c-1441 0 -1900 3 -1900 12 0 6 20 75 45 154 l45 142 -51 119 c-48 110 -52 125
-57 216 l-4 97 301 0 301 0 0 310 0 310 -610 0 -610 0 0 -310z m1200 0 l0
-290 -590 0 -590 0 0 290 0 290 590 0 590 0 0 -290z m-6740 -280 l0 -290
-3990 0 -3990 0 0 290 0 290 3990 0 3990 0 0 -290z m9960 -1180 l0 -390 -3700
0 -3700 0 0 390 0 390 3700 0 3700 0 0 -390z m0 -1010 l0 -600 -3700 0 -3700
0 0 600 0 600 3700 0 3700 0 0 -600z m0 -1420 l0 -800 -3700 0 -3700 0 0 800
0 800 3700 0 3700 0 0 -800z m-10520 -1330 l0 -390 -3430 0 -3430 0 0 390 0
390 3430 0 3430 0 0 -390z m0 -1010 l0 -600 -3430 0 -3430 0 0 600 0 600 3430
0 3430 0 0 -600z m8620 -10 l0 -290 -1790 0 -1790 0 0 290 0 290 1790 0 1790
0 0 -290z m-8620 -1010 l0 -400 -3430 0 -3430 0 0 400 0 400 3430 0 3430 0 0
-400z"/>
<path d="M14733 5994 c-21 -33 -20 -89 3 -115 10 -11 30 -19 50 -19 40 0 64
29 64 80 0 51 -24 80 -65 80 -26 0 -39 -6 -52 -26z"/>
<path d="M13613 5594 c-21 -33 -20 -89 3 -115 10 -11 30 -19 50 -19 40 0 64
29 64 80 0 51 -24 80 -65 80 -26 0 -39 -6 -52 -26z"/>
<path d="M5393 2234 c-21 -33 -20 -89 3 -115 10 -11 30 -19 50 -19 40 0 64 29
64 80 0 51 -24 80 -65 80 -26 0 -39 -6 -52 -26z"/>
<path d="M1873 1834 c-21 -33 -20 -89 3 -115 10 -11 30 -19 50 -19 40 0 64 29
64 80 0 51 -24 80 -65 80 -26 0 -39 -6 -52 -26z"/>
<path d="M4753 1834 c-21 -33 -20 -89 3 -115 10 -11 30 -19 50 -19 40 0 64 29
64 80 0 51 -24 80 -65 80 -26 0 -39 -6 -52 -26z"/>
<path d="M1460 1630 c322 -3 1368 -3 2325 0 l1740 5 -2325 0 c-1279 1 -2062
-2 -1740 -5z"/>
<path d="M19910 5400 l0 -1230 2910 0 2910 0 0 1230 0 1230 -2910 0 -2910 0 0
-1230z m5800 820 l0 -390 -2890 0 -2890 0 0 390 0 390 2890 0 2890 0 0 -390z
m0 -710 l0 -300 -2890 0 -2890 0 0 300 0 300 2890 0 2890 0 0 -300z m0 -820
l0 -500 -2890 0 -2890 0 0 500 0 500 2890 0 2890 0 0 -500z"/>
<path d="M21318 4713 c661 -2 1743 -2 2405 0 661 1 120 2 -1203 2 -1323 0
-1864 -1 -1202 -2z"/>
</g>
</svg>
